# Made in Blockbench 4.12.6
mtllib brick_kiln_multiblock.mtl

o cube
v 1 1 0
v 1 0 0
v 0 1 0
v 0 0 0
v 0 1 0
v 0 0 0
v -1 1 1
v -1 1 0
v -1 0 1
v -1 0 0
v 2 1 1
v 2 1 0
v 2 0 1
v 2 0 0
v 1 1 0
v 1 0 0
v 2 2 1
v 2 2 0
v 2 1 1
v 2 1 0
v 1 2 1
v 1 2 0
v 1 1 0
v 1 2 1
v 1 2 0
v 1 1 0
v 0 2 1
v 0 2 0
v 0 1 0
v 0 2 1
v 0 2 0
v 0 1 0
v -1 2 1
v -1 2 0
v -1 1 1
v -1 1 0
v 0 0 0
v 0 -1 1
v 0 -1 0
v -1 0 1
v -1 0 0
v -1 -1 1
v -1 -1 0
v 1 0 0
v 1 -1 1
v 1 -1 0
v 0 0 0
v 0 -1 1
v 0 -1 0
v 2 0 1
v 2 0 0
v 2 -1 1
v 2 -1 0
v 1 0 0
v 1 -1 1
v 1 -1 0
v 2 0 2
v 2 0 1
v 2 -1 2
v 2 -1 1
v 1 -1 2
v 1 -1 1
v 2 1 2
v 2 1 1
v 2 0 2
v 2 0 1
v 2 2 2
v 2 2 1
v 2 1 2
v 2 1 1
v 1 2 2
v 1 2 1
v 0 2 3
v 0 2 2
v 0 1 3
v -1 2 3
v -1 2 2
v -1 1 3
v -1 1 2
v 1 2 3
v 1 2 2
v 1 1 3
v 0 2 3
v 0 2 2
v 0 1 3
v 2 2 3
v 2 2 2
v 2 1 3
v 2 1 2
v 1 2 3
v 1 2 2
v 1 1 3
v 2 1 3
v 2 1 2
v 2 0 3
v 2 0 2
v 1 1 3
v 1 0 3
v 2 0 3
v 2 0 2
v 2 -1 3
v 2 -1 2
v 1 0 3
v 1 -1 3
v 1 -1 2
v 1 0 3
v 1 -1 3
v 1 -1 2
v 0 0 3
v 0 -1 3
v 0 -1 2
v 0 1 3
v 0 0 3
v -1 1 3
v -1 1 2
v -1 0 3
v -1 0 2
v 1 1 3
v 1 0 3
v 0 1 3
v 0 0 3
v 0 0 3
v 0 -1 3
v 0 -1 2
v -1 0 3
v -1 0 2
v -1 -1 3
v -1 -1 2
v 0 2 2
v 0 2 1
v -1 2 2
v -1 2 1
v -1 1 2
v -1 1 1
v 0 -1 2
v 0 -1 1
v -1 0 2
v -1 0 1
v -1 -1 2
v -1 -1 1
v -1 1 2
v -1 1 1
v -1 0 2
v -1 0 1
v 1 2 2
v 1 2 1
v 0 2 2
v 0 2 1
v 1 -1 2
v 1 -1 1
v 0 -1 2
v 0 -1 1
vt 1 0
vt 1 1
vt 0 1
vt 0 0
vt 1 0
vt 1 1
vt 0 1
vt 0 0
vt 1 0
vt 1 1
vt 0 1
vt 0 0
vt 1 0
vt 1 1
vt 0 1
vt 0 0
vt 1 0
vt 1 1
vt 0 1
vt 0 0
vt 1 0
vt 1 1
vt 0 1
vt 0 0
vt 1 0
vt 1 1
vt 0 1
vt 0 0
vt 1 0
vt 1 1
vt 0 1
vt 0 0
vt 1 0
vt 1 1
vt 0 1
vt 0 0
vt 1 0
vt 1 1
vt 0 1
vt 0 0
vt 1 0
vt 1 1
vt 0 1
vt 0 0
vt 1 0
vt 1 1
vt 0 1
vt 0 0
vt 1 0
vt 1 1
vt 0 1
vt 0 0
vt 1 0
vt 1 1
vt 0 1
vt 0 0
vt 1 0
vt 1 1
vt 0 1
vt 0 0
vt 1 0
vt 1 1
vt 0 1
vt 0 0
vt 1 0
vt 1 1
vt 0 1
vt 0 0
vt 1 0
vt 1 1
vt 0 1
vt 0 0
vt 1 0
vt 1 1
vt 0 1
vt 0 0
vt 1 0
vt 1 1
vt 0 1
vt 0 0
vt 1 0
vt 1 1
vt 0 1
vt 0 0
vt 1 0
vt 1 1
vt 0 1
vt 0 0
vt 1 0
vt 1 1
vt 0 1
vt 0 0
vt 1 0
vt 1 1
vt 0 1
vt 0 0
vt 1 0
vt 1 1
vt 0 1
vt 0 0
vt 1 0
vt 1 1
vt 0 1
vt 0 0
vt 1 0
vt 1 1
vt 0 1
vt 0 0
vt 1 0
vt 1 1
vt 0 1
vt 0 0
vt 1 0
vt 1 1
vt 0 1
vt 0 0
vt 1 0
vt 1 1
vt 0 1
vt 0 0
vt 1 0
vt 1 1
vt 0 1
vt 0 0
vt 1 0
vt 1 1
vt 0 1
vt 0 0
vt 1 0
vt 1 1
vt 0 1
vt 0 0
vt 1 0
vt 1 1
vt 0 1
vt 0 0
vt 1 0
vt 1 1
vt 0 1
vt 0 0
vt 1 0
vt 1 1
vt 0 1
vt 0 0
vt 1 0
vt 1 1
vt 0 1
vt 0 0
vt 1 0
vt 1 1
vt 0 1
vt 0 0
vt 1 0
vt 1 1
vt 0 1
vt 0 0
vt 1 0
vt 1 1
vt 0 1
vt 0 0
vt 1 0
vt 1 1
vt 0 1
vt 0 0
vt 1 0
vt 1 1
vt 0 1
vt 0 0
vt 1 0
vt 1 1
vt 0 1
vt 0 0
vt 1 0
vt 1 1
vt 0 1
vt 0 0
vt 1 0
vt 1 1
vt 0 1
vt 0 0
vt 1 0
vt 1 1
vt 0 1
vt 0 0
vt 1 0
vt 1 1
vt 0 1
vt 0 0
vt 1 0
vt 1 1
vt 0 1
vt 0 0
vt 1 0
vt 1 1
vt 0 1
vt 0 0
vt 1 0
vt 1 1
vt 0 1
vt 0 0
vt 1 0
vt 1 1
vt 0 1
vt 0 0
vt 1 0
vt 1 1
vt 0 1
vt 0 0
vt 1 0
vt 1 1
vt 0 1
vt 0 0
vt 1 0
vt 1 1
vt 0 1
vt 0 0
vn 0 0 -1
vn -1 0 0
vn 0 0 -1
vn 1 0 0
vn 0 0 -1
vn 1 0 0
vn 0 1 0
vn 0 0 -1
vn 0 1 0
vn 0 0 -1
vn -1 0 0
vn 0 1 0
vn 0 0 -1
vn -1 0 0
vn 0 -1 0
vn 0 0 -1
vn 0 -1 0
vn 0 0 -1
vn 1 0 0
vn 0 -1 0
vn 0 0 -1
vn 1 0 0
vn 0 -1 0
vn 1 0 0
vn 1 0 0
vn 0 1 0
vn -1 0 0
vn 0 1 0
vn 0 0 1
vn 0 1 0
vn 0 0 1
vn 1 0 0
vn 0 1 0
vn 0 0 1
vn 1 0 0
vn 0 0 1
vn 1 0 0
vn 0 -1 0
vn 0 0 1
vn 0 -1 0
vn 0 0 1
vn -1 0 0
vn 0 0 1
vn 0 0 1
vn -1 0 0
vn 0 -1 0
vn 0 0 1
vn -1 0 0
vn 0 1 0
vn -1 0 0
vn 0 -1 0
vn -1 0 0
vn 0 1 0
vn 0 -1 0
usemtl m_af8b0f63-8f87-7f5d-f6e9-228fcaccbec8
f 4/1/1 3/2/1 1/3/1 2/4/1
usemtl m_58a29a98-e13d-65a4-2dfe-5aab9a4dba5f
f 9/5/2 7/6/2 8/7/2 10/8/2
f 10/9/3 8/10/3 5/11/3 6/12/3
f 14/13/4 12/14/4 11/15/4 13/16/4
f 16/17/5 15/18/5 12/19/5 14/20/5
f 20/21/6 18/22/6 17/23/6 19/24/6
f 17/25/7 18/26/7 22/27/7 21/28/7
f 23/29/8 22/30/8 18/31/8 20/32/8
f 24/33/9 25/34/9 28/35/9 27/36/9
f 29/37/10 28/38/10 25/39/10 26/40/10
f 35/41/11 33/42/11 34/43/11 36/44/11
f 30/45/12 31/46/12 34/47/12 33/48/12
f 36/49/13 34/50/13 31/51/13 32/52/13
f 42/53/14 40/54/14 41/55/14 43/56/14
f 39/57/15 38/58/15 42/59/15 43/60/15
f 43/61/16 41/62/16 37/63/16 39/64/16
f 46/65/17 45/66/17 48/67/17 49/68/17
f 49/69/18 47/70/18 44/71/18 46/72/18
f 53/73/19 51/74/19 50/75/19 52/76/19
f 53/77/20 52/78/20 55/79/20 56/80/20
f 56/81/21 54/82/21 51/83/21 53/84/21
f 60/85/22 58/86/22 57/87/22 59/88/22
f 60/89/23 59/90/23 61/91/23 62/92/23
f 66/93/24 64/94/24 63/95/24 65/96/24
f 70/97/25 68/98/25 67/99/25 69/100/25
f 67/101/26 68/102/26 72/103/26 71/104/26
f 78/105/27 76/106/27 77/107/27 79/108/27
f 73/109/28 74/110/28 77/111/28 76/112/28
f 75/113/29 73/114/29 76/115/29 78/116/29
f 80/117/30 81/118/30 84/119/30 83/120/30
f 82/121/31 80/122/31 83/123/31 85/124/31
f 89/125/32 87/126/32 86/127/32 88/128/32
f 86/129/33 87/130/33 91/131/33 90/132/33
f 88/133/34 86/134/34 90/135/34 92/136/34
f 96/137/35 94/138/35 93/139/35 95/140/35
f 95/141/36 93/142/36 97/143/36 98/144/36
f 102/145/37 100/146/37 99/147/37 101/148/37
f 102/149/38 101/150/38 104/151/38 105/152/38
f 101/153/39 99/154/39 103/155/39 104/156/39
f 108/157/40 107/158/40 110/159/40 111/160/40
f 107/161/41 106/162/41 109/163/41 110/164/41
f 116/165/42 114/166/42 115/167/42 117/168/42
f 113/169/43 112/170/43 114/171/43 116/172/43
f 119/173/44 118/174/44 120/175/44 121/176/44
f 127/177/45 125/178/45 126/179/45 128/180/45
f 124/181/46 123/182/46 127/183/46 128/184/46
f 123/185/47 122/186/47 125/187/47 127/188/47
f 133/189/48 131/190/48 132/191/48 134/192/48
f 129/193/49 130/194/49 132/195/49 131/196/49
f 139/197/50 137/198/50 138/199/50 140/200/50
f 136/201/51 135/202/51 139/203/51 140/204/51
f 143/205/52 141/206/52 142/207/52 144/208/52
f 145/209/53 146/210/53 148/211/53 147/212/53
f 150/213/54 149/214/54 151/215/54 152/216/54